<?xml version="1.0" encoding="utf-8"?>
<!-- Generator: Adobe Illustrator 21.0.2, SVG Export Plug-In . SVG Version: 6.00 Build 0)  -->
<svg version="1.1" id="Layer_1" xmlns="http://www.w3.org/2000/svg" xmlns:xlink="http://www.w3.org/1999/xlink" x="0px" y="0px"
	 viewBox="0 0 283.5 263.3" style="enable-background:new 0 0 283.5 263.3;" xml:space="preserve">
<path d="M141.7,263.3c-28.9,0-57.8,0.1-86.7,0c-32.6-0.1-54.5-22.2-54.6-54.9c-0.1-22.3-0.3-44.7-0.4-67c0-2.5,0.5-5,1-7.4
	c0.9-4.9,5-7,8.8-6c2.6,0.7,5.7,4.7,6,7.5c1,7.3,0.6,14.7,0.6,22.1c0.1,17.1-0.1,34.2,0.1,51.2c0.1,23.1,15.4,38.4,38.6,38.4
	c58,0.1,116,0.1,173.9,0c22.9-0.1,37.8-15.3,37.9-38.3c0.1-22.1,0.1-44.3,0.2-66.4c0-1.9,0-3.8,0.1-5.7c0.3-5,3-7.6,8.1-7.8
	c4.9-0.2,7.1,3.1,7.5,6.9c0.7,5.8,0.4,11.8,0.4,17.6c0,18.8,0.1,37.5,0,56.3c-0.1,30.5-22.3,53.1-52.9,53.3
	C200.7,263.5,171.2,263.3,141.7,263.3z"/>
<path d="M151.9,172.9c7.5-7.9,15-15.8,22.6-23.6c4.2-4.4,8.8-8.5,12.9-12.9c4-4.3,7.9-3.3,11.6-0.1c3.2,2.7,2.9,8.7-0.4,12
	c-16.6,16.5-33.2,33-49.8,49.5c-5,4.9-9.1,4.9-14.1-0.1c-16.6-16.5-33.1-33.1-49.6-49.7c-3.9-3.9-4-8.8-0.3-12.2
	c3.4-3.1,8.6-2.4,12.2,1.3c11.8,11.9,23.7,23.6,36.7,36.6c0-13.5,0-25.5,0-37.4c0-41.7-0.1-83.5-0.1-125.2c0-6.2,3.3-10.1,8.1-10
	c4.8,0.1,8.2,4,8.2,10.1c0.1,34.4,0,68.7,0,103.1c0,19.1,0,38.3,0,57.4C150.7,172.1,151.3,172.5,151.9,172.9z"/>
</svg>
