<?xml version="1.0" encoding="utf-8"?>
<!-- Generator: Adobe Illustrator 21.0.2, SVG Export Plug-In . SVG Version: 6.00 Build 0)  -->
<svg version="1.1" id="Layer_1" xmlns="http://www.w3.org/2000/svg" xmlns:xlink="http://www.w3.org/1999/xlink" x="0px" y="0px"
	 viewBox="0 0 221.6 221.2" style="enable-background:new 0 0 221.6 221.2;" xml:space="preserve">
<path d="M15.9,49.6c0,52,0,103.8,0,155.7c51.9,0,103.7,0,155.7,0c0-0.3,0-0.5,0-0.8c0-25.6,0-51.2,0-76.9c0-3.7,2.3-6.8,5.7-7.8
	c5.1-1.4,10.1,2.3,10.1,7.7c0,23.7,0,47.5,0,71.2c0,4.8,0,9.6,0,14.4c0,3.9-2.6,7.1-6.4,7.9c-0.6,0.1-1.2,0.2-1.8,0.2
	c-57,0-114.1,0-171.1,0c-4.2,0-7.4-2.7-8.1-6.9C0,213.9,0,213.5,0,213.1C0,156,0,99,0,41.9c0-4.1,3.2-8.2,8-8.2c0.1,0,0.2,0,0.4,0
	c28.3,0,56.6,0,84.9,0c2.4,0,4.5,0.7,6.1,2.4c2.3,2.4,2.9,5.3,1.7,8.4c-1.2,3-3.5,4.7-6.8,5c-0.4,0-0.7,0-1.1,0
	c-25.5,0-50.9,0-76.4,0C16.5,49.6,16.2,49.6,15.9,49.6z"/>
<path d="M53.9,159.4c0.2-0.9,0.4-2,0.8-3c6.1-14.3,12.2-28.7,18.4-43c0.4-1,1.2-2,2-2.8c24.2-24.3,48.5-48.5,72.7-72.7
	c11.8-11.8,23.5-23.6,35.3-35.3c3.1-3.1,7.4-3.3,10.8-0.7c0.3,0.2,0.6,0.5,0.9,0.8c8.1,8,16.1,16.1,24.2,24.1
	c3.5,3.5,3.5,8.3,0,11.8c-36,36-72,71.9-107.9,107.9c-0.9,0.9-1.9,1.6-3.1,2.2c-14.2,6.1-28.4,12.2-42.7,18.3
	c-4.6,1.9-9.5-0.3-10.9-5C54.2,161.1,54.1,160.4,53.9,159.4z M90,118.4c4.4,4.4,8.9,8.9,13.3,13.3c25.8-25.8,51.7-51.7,77.5-77.5
	c-4.4-4.4-8.9-8.9-13.3-13.3C141.6,66.7,115.8,92.5,90,118.4z M175.1,33.2c4.4,4.4,8.9,8.9,13.2,13.2c4.6-4.6,9.3-9.2,13.9-13.8
	c-4.4-4.4-8.8-8.9-13.2-13.3C184.4,24,179.7,28.6,175.1,33.2z M93.7,137.4c-3.2-3.2-6.3-6.3-9.5-9.5c-2.4,5.5-4.7,11-7.1,16.7
	C82.7,142.1,88.2,139.8,93.7,137.4z"/>
</svg>
