<?xml version="1.0" encoding="utf-8"?>
<!-- Generator: Adobe Illustrator 21.0.2, SVG Export Plug-In . SVG Version: 6.00 Build 0)  -->
<svg version="1.1" id="Layer_1" xmlns="http://www.w3.org/2000/svg" xmlns:xlink="http://www.w3.org/1999/xlink" x="0px" y="0px"
	 viewBox="0 0 282.8 285" style="enable-background:new 0 0 282.8 285;" xml:space="preserve">
<style type="text/css">
	.st0{clip-path:url(#SVGID_2_);}
	.st1{clip-path:url(#SVGID_4_);fill:#FF0404;}
	.st2{clip-path:url(#SVGID_6_);}
	.st3{clip-path:url(#SVGID_8_);fill:#FF0404;}
	.st4{fill:#FF0000;}
</style>
<g>
	<defs>
		<path id="SVGID_1_" d="M762.2-263.8c5.3-2.6,9.2-6.5,11.9-11.7c0.1-0.2,0-0.6-0.1-0.8c-0.8-0.9-1.6-1.6-2.4-2.5
			c-1-1.1-1.1-2.7,0-3.8c1.8-1.9,3.6-3.7,5.5-5.5c1-1,2.5-1,3.6-0.1c1.1,0.9,2,1.9,2.6,3.2c1.4,2.9,1.3,5.9,0.5,8.9
			c-0.9,3.2-2.8,6-4.9,8.5c-3.5,4.3-7.5,8.1-12.3,10.9c-2.7,1.5-5.6,2.6-8.6,2.9c-3,0.3-5.4-0.9-7.5-3.1c-1.4-1.4-1.4-3,0-4.4
			c1.6-1.6,3.2-3.2,4.8-4.8c1.5-1.5,3.1-1.5,4.6,0C760.6-265.4,761.4-264.6,762.2-263.8z"/>
	</defs>
	<clipPath id="SVGID_2_">
		<use xlink:href="#SVGID_1_"  style="overflow:visible;"/>
	</clipPath>
	<g class="st0">
		<defs>
			<rect id="SVGID_3_" x="-593.6" y="-373.8" width="1440" height="830"/>
		</defs>
		<clipPath id="SVGID_4_">
			<use xlink:href="#SVGID_3_"  style="overflow:visible;"/>
		</clipPath>
		<rect x="744.4" y="-293.8" class="st1" width="45" height="45"/>
	</g>
</g>
<g>
	<defs>
		<path id="SVGID_5_" d="M762.2-263.8c5.3-2.6,9.2-6.5,11.9-11.7c0.1-0.2,0-0.6-0.1-0.8c-0.8-0.9-1.6-1.6-2.4-2.5
			c-1-1.1-1.1-2.7,0-3.8c1.8-1.9,3.6-3.7,5.5-5.5c1-1,2.5-1,3.6-0.1c1.1,0.9,2,1.9,2.6,3.2c1.4,2.9,1.3,5.9,0.5,8.9
			c-0.9,3.2-2.8,6-4.9,8.5c-3.5,4.3-7.5,8.1-12.3,10.9c-2.7,1.5-5.6,2.6-8.6,2.9c-3,0.3-5.4-0.9-7.5-3.1c-1.4-1.4-1.4-3,0-4.4
			c1.6-1.6,3.2-3.2,4.8-4.8c1.5-1.5,3.1-1.5,4.6,0C760.6-265.4,761.4-264.6,762.2-263.8z"/>
	</defs>
	<clipPath id="SVGID_6_">
		<use xlink:href="#SVGID_5_"  style="overflow:visible;"/>
	</clipPath>
	<g class="st2">
		<defs>
			<rect id="SVGID_7_" x="-593.6" y="-373.8" width="1440" height="830"/>
		</defs>
		<clipPath id="SVGID_8_">
			<use xlink:href="#SVGID_7_"  style="overflow:visible;"/>
		</clipPath>
		<rect x="744.4" y="-293.8" class="st3" width="45" height="45"/>
	</g>
</g>
<path class="st4" d="M148.4,0.3c1.7,0,3.4-0.1,5.1,0c3.1,0.2,6.2,0.4,9.3,0.9c4.1,0.7,8.2,1.5,12.2,2.6c6.4,1.6,12.4,4.2,18.2,7.2
	c5.3,2.8,10.3,6.1,15.1,9.7c4.2,3.2,8.1,6.8,11.6,10.8c2.9,3.2,5.6,6.7,8.2,10.3c2.4,3.4,4.6,7.1,6.6,10.8
	c2.9,5.6,5.3,11.4,6.9,17.5c0.8,3,1.6,6.1,2.2,9.1c0.4,2,0.5,4.1,0.8,6.2c1,5.7,0.8,11.5,0.6,17.2c-0.1,3.6-0.6,7.1-1.2,10.6
	c-0.8,4.4-2,8.7-3.2,13c-0.8,2.9-1.9,5.7-3.1,8.5c-3.2,7.6-7.5,14.6-11.6,21.8c-3.3,5.8-6.5,11.6-9.8,17.3
	c-3.4,5.9-6.9,11.8-10.3,17.7c-2.7,4.7-5.3,9.4-8,14c-2.8,4.9-5.6,9.7-8.4,14.5c-2.6,4.5-5.1,8.9-7.6,13.4c-3.5,6-7,12-10.4,18
	c-3.4,6-6.9,12-10.3,18c-1.3,2.2-2.5,4.5-3.9,6.6c-3.4,5.2-10.5,6.2-15.5,2.6c-2-1.5-3.1-3.6-4.2-5.7c-4-6.9-8-13.8-12-20.7
	c-3.7-6.4-7.3-12.8-10.9-19.2c-3.6-6.3-7.3-12.6-11-18.9c-2.9-5-5.7-10.1-8.6-15.1c-3.1-5.4-6.3-10.8-9.4-16.2
	c-2.4-4.3-4.8-8.6-7.2-12.8c-2.6-4.6-5.3-9.2-8-13.9c-2-3.5-4.1-7-6-10.6c-2.2-4.2-4.3-8.4-6.1-12.8c-2.2-5.2-3.8-10.7-4.9-16.2
	c-1-4.9-1.8-9.8-1.8-14.9c0-2.4-0.3-4.7-0.2-7.1c0.2-3.5,0.6-7,0.9-10.5c0.5-4.9,1.4-9.6,3-14.2c1.4-4.2,2.9-8.4,4.5-12.5
	c2.1-5.2,4.9-10.2,8.2-14.7c2.9-4.1,6.1-8,9.3-11.7c3.6-4.2,7.9-7.8,12.3-11.2c5.2-4,10.8-7.4,16.6-10.2c5-2.5,10.3-4.4,15.7-5.9
	c3.5-1,7.1-1.7,10.6-2.4c2.3-0.4,4.7-0.6,7-0.7c2.9-0.1,5.7,0,8.6,0C148.4,0.5,148.4,0.4,148.4,0.3z M105.2,101.2
	c0,15.3,4,25.3,11.8,33.6c7.7,8.2,17.3,12.8,28.6,13.5c13,0.8,24.2-3.4,33.4-12.5c7.9-7.8,12.2-17.4,12.7-28.5
	c0.6-11.9-3.2-22.4-11.2-31.3c-8.1-8.8-18.1-13.6-30.1-14.1c-12.2-0.5-22.9,3.4-31.7,11.8C109.8,82.2,105.3,92.6,105.2,101.2z"/>
</svg>
