<?xml version="1.0" encoding="utf-8"?>
<!-- Generator: Adobe Illustrator 21.0.2, SVG Export Plug-In . SVG Version: 6.00 Build 0)  -->
<svg version="1.1" id="Layer_1" xmlns="http://www.w3.org/2000/svg" xmlns:xlink="http://www.w3.org/1999/xlink" x="0px" y="0px"
	 viewBox="0 0 221.6 221.2" style="enable-background:new 0 0 221.6 221.2;" xml:space="preserve">
<path d="M0,207.2c0.6-2.1,1.1-4.2,1.7-6.3c4.5-16.5,9-33,13.5-49.4c4.7-17.2,9.4-34.4,14-51.6c0.2-0.7,0.5-0.9,1.2-0.9
	c14.7,0,29.4,0,44.1,0c0.3,0,0.7,0,1.1,0c-0.2-0.3-0.3-0.6-0.4-0.9c-3.9-7.4-7.5-14.9-10.5-22.8c-1.9-5.1-3.5-10.4-3.8-15.9
	c-0.4-6.3,0.5-12.4,2.6-18.3C69.9,24,81.9,12.8,99.8,8.7c17-3.9,32.3,0.4,45.2,12.3c7.9,7.3,12.8,16.3,14.9,26.9
	c1.5,7.5,1.1,14.9-1.2,22.3c-2.1,6.8-5,13.4-8.1,19.8c-1.4,2.8-2.8,5.5-4.2,8.3c-0.1,0.2-0.2,0.4-0.4,0.8c0.4,0,0.7,0,1,0
	c14.7,0,29.4,0,44.1,0c0.7,0,1,0.2,1.2,0.9c6.7,24.8,13.5,49.6,20.2,74.4c2.9,10.7,5.8,21.4,8.8,32.1c0.1,0.3,0.1,0.5,0.2,0.8
	C147.7,207.2,73.9,207.2,0,207.2z M42.2,115.6c-6.8,25-13.6,49.9-20.4,74.9c59.4,0,118.7,0,178,0c-6.8-25-13.6-49.9-20.4-74.9
	c-0.3,0-0.7,0-1,0c-13.6,0-27.3,0-40.9,0c-0.8,0-1.2,0.2-1.6,0.9c-6.7,11.4-13.9,22.5-21.4,33.4c-1.2,1.8-2.4,3.5-3.7,5.4
	c-0.2-0.2-0.3-0.4-0.4-0.5c-2.5-3.7-5.2-7.3-7.6-11c-5.8-9-11.5-18-17.1-27c-0.5-0.7-0.9-1-1.8-1c-13.5,0-27.1,0-40.6,0
	C43,115.6,42.6,115.6,42.2,115.6z M110.8,125c0.2-0.3,0.3-0.4,0.4-0.6c6.8-9.8,12.9-20.1,18.6-30.6c4.5-8.3,8.8-16.8,11.8-25.8
	c0.9-2.9,1.7-5.8,2.3-8.7c0.6-3.5,0-6.9-0.8-10.3c-4.3-16.6-20.2-27.2-37.3-24.5C93.7,26.3,85,33.1,80.1,44.4
	c-2.8,6.5-3.5,13.1-1.3,20c2,6.5,4.6,12.8,7.6,18.9c5.9,12,12.6,23.6,19.8,34.9C107.7,120.4,109.2,122.6,110.8,125z"/>
<path d="M123.3,57.3c0,6.9-5.6,12.5-12.5,12.5c-6.9,0-12.5-5.6-12.5-12.5c0-6.9,5.6-12.5,12.5-12.5
	C117.7,44.8,123.3,50.4,123.3,57.3z"/>
</svg>
