<?xml version="1.0" encoding="utf-8"?>
<!-- Generator: Adobe Illustrator 21.0.2, SVG Export Plug-In . SVG Version: 6.00 Build 0)  -->
<svg version="1.1" id="Layer_1" xmlns="http://www.w3.org/2000/svg" xmlns:xlink="http://www.w3.org/1999/xlink" x="0px" y="0px"
	 viewBox="0 0 221.6 221.2" style="enable-background:new 0 0 221.6 221.2;" xml:space="preserve">
<path d="M221.6,163c-1.2,3.2-1.9,6.6-3.6,9.5c-4.5,7.8-11.4,11.8-20.4,12.4c-1.6,0.1-3.3,0.1-5,0c-1.3-0.1-1.6,0.4-1.6,1.6
	c0,6.6,0,13.2,0,19.8c0,1.9-0.2,3.7-2.2,4.6c-1.8,0.7-3.4,0.1-5.1-1.8c-6.5-7.7-13-15.4-19.5-23.1c-0.8-1-1.7-1.1-2.8-1.1
	c-32.4,0-64.9,0-97.3,0c-5,0-9.9-0.5-14.4-3c-8.5-4.7-13-11.9-13.4-21.6c-0.2-3.9,0-7.8,0-11.9c-0.7,0-1.3-0.1-1.9-0.1
	c-3.9-0.1-7.9,0.1-11.8-0.2c-11.3-1-20.2-9.3-22.3-20.5c-0.3-1.4-0.4-2.9-0.4-4.4C0,96.9,0,70.4,0,44c0-10.8,7.4-20.9,17.7-23.9
	c2.7-0.8,5.7-1.1,8.6-1.1c44.1-0.1,88.3,0,132.4-0.1c9,0,16.3,3.2,21.7,10.5c3.2,4.3,4.7,9.2,4.7,14.5c0,3.8,0,7.5,0,11.5
	c0.8,0,1.5,0.1,2.2,0.1c4.4,0.1,8.9-0.2,13.2,0.5c10.8,1.7,18.5,9.4,20.7,20.2c0.1,0.4,0.3,0.9,0.4,1.3
	C221.6,106.1,221.6,134.5,221.6,163z M183.6,197.1c0.1-1.1,0.1-1.7,0.1-2.3c0-4.3,0-8.6,0-12.9c0-3.1,1.4-4.4,4.5-4.4
	c2.1,0,4.1,0.1,6.2,0c2.1-0.1,4.3-0.1,6.3-0.6c7.5-1.9,13.4-8.4,13.4-17.9c0-25.8,0-51.6,0-77.3c0-1.7-0.1-3.5-0.5-5.1
	c-2.3-8.3-8.9-13.4-17.5-13.4c-44.6,0-89.2,0-133.8,0c-10.5,0-18.2,7.6-18.2,18c-0.1,26.1-0.1,52.1,0,78.2c0,4,1.1,7.8,3.6,11
	c3.8,4.9,8.9,7.1,15.1,7.1c33.7,0,67.5,0,101.2,0c1.9,0,3.5,0.5,4.7,2c2.3,2.8,4.7,5.6,7,8.4C178.1,190.8,180.7,193.7,183.6,197.1z
	 M36.5,140.9c0-1,0-1.6,0-2.2c0-6.1,0-12.3,0-18.4c0-13,0-26.1,0-39.1c0-7.5,2.7-13.9,8.3-19c5-4.6,11.1-6.5,17.8-6.5
	c37.5,0,74.9,0,112.4,0c0.4,0,0.8,0,1.2,0c1.2,0.1,1.5-0.4,1.5-1.5c-0.1-3.3,0.1-6.6-0.1-9.9c-0.2-5.6-2.4-10.4-6.9-13.9
	c-3.6-2.9-7.9-3.8-12.4-3.8c-39.7,0-79.4,0-119.1,0c-4.4,0-8.8,0-13.3,0C18.2,26.6,12.5,30,9.1,37.1c-1.3,2.7-1.5,5.7-1.5,8.6
	c0,24,0,48,0,72c0,2.4,0.1,4.8,0.2,7.2c0.3,6.6,5.5,12.9,11.7,14.9C25,141.6,30.6,140.5,36.5,140.9z"/>
</svg>
