<?xml version="1.0" encoding="utf-8"?>
<!-- Generator: Adobe Illustrator 21.0.2, SVG Export Plug-In . SVG Version: 6.00 Build 0)  -->
<svg version="1.1" id="Layer_1" xmlns="http://www.w3.org/2000/svg" xmlns:xlink="http://www.w3.org/1999/xlink" x="0px" y="0px"
	 viewBox="0 0 221.6 221.2" style="enable-background:new 0 0 221.6 221.2;" xml:space="preserve">
<path d="M199.4,39.3c1.2-3.1,1.9-3.6,5-3.6c5.4,0,10.8,0,16.5,0c0,2.4,0,4.6,0,7.1c-4.6,0-9.1,0-13.9,0c0,23.9,0,47.5,0,71.4
	c4.6,0,9.2,0,13.9,0c0,2.5,0,4.7,0,7.2c-6.1,0-12.1,0.2-18-0.1c-1.3-0.1-2.5-1.8-3.8-2.7c0.1-0.2,0.3-0.5,0.4-0.7c-3.3,0-6.7,0-10,0
	c-19.4,0-38.8-0.2-58.2,0.1c-10.9,0.2-17.1-10.9-11.7-19.3c0.1-0.1,0.1-0.3,0.1-0.6c-6-4.8-7.3-10.8-3.5-17.8
	c-2.9-2.4-5.2-5.2-5.6-9.2c-0.4-3.9,0.8-7.3,3.1-9.8c-1.1-3-2.6-5.7-3-8.5c-0.9-7.3,4.8-13.4,12.2-13.5c7.9-0.1,15.8,0,23.6,0
	c1,0,1.9,0,3.1,0c0-0.8,0.1-1.5,0.1-2.2c0-5.1,0-10.3,0-15.4c0.1-11.2,7.6-19.8,18.7-21.5c4.7-0.7,6.3,0.6,6.3,5.4
	c0,6.5-0.1,13.1,0.1,19.6c0,1.1,0.6,2.4,1.3,3.3c3.1,3.3,6.3,6.5,9.6,9.6c0.6,0.6,1.5,1.1,2.2,1.1C191.7,39.3,195.5,39.3,199.4,39.3
	z M167.6,7.7c-6.8,2-10.6,7.1-10.7,14.1c-0.1,6.6,0,13.2,0,19.8c0,3.6-1.2,4.8-4.8,4.8c-9.6,0-19.2,0-28.8,0c-3.4,0-5.6,2.2-5.6,5.3
	c0,3.1,2.3,5.3,5.6,5.4c1.6,0,3.2,0,4.9,0c0,2.5,0,4.8,0,7.1c-1.6,0-3.1,0-4.6,0c-3.6,0-5.9,2.1-5.9,5.3c-0.1,3.2,2.3,5.4,6,5.4
	c2.7,0,5.3,0,8.1,0c0,2.4,0,4.7,0,7.1c-1.5,0-2.9,0-4.3,0c-3.9,0-6.2,2.1-6.2,5.4c0,3.2,2.4,5.2,6.1,5.3c2.6,0,5.3,0,8.1,0
	c0,2.1,0,3.9,0,5.6c0,0.4-0.1,0.9-0.2,1.5c-1.5,0-3,0-4.5,0c-3.7,0-6,2.1-6,5.4c0,3.3,2.4,5.3,6.1,5.3c22.1,0,44.3,0,66.4,0
	c0.7,0,1.4-0.1,2.2-0.1c0-21.4,0-42.7,0-64.1c-4.5,0-8.8,0.1-13.1-0.1c-1.4-0.1-3.1-0.7-4.1-1.7c-4.5-4.2-8.8-8.6-13.1-13.1
	c-0.9-1-1.5-2.6-1.6-3.9c-0.2-4.9-0.1-9.8-0.1-14.7C167.6,11.3,167.6,9.6,167.6,7.7z"/>
<path d="M104.8,141c6,4.8,7.9,12,2.1,19.7c2.3,2.6,3.7,5.7,3.5,9.3c-0.4,6.9-5.6,11.9-12.5,12c-8,0.1-16.1,0-24.1,0
	c-0.8,0-1.6,0-2.6,0c0,5.3-0.1,10.3,0,15.3c0.1,5.9-1,11.4-4.9,16c-4,4.8-9.2,7.4-15.4,7.8c-3.3,0.2-4.7-1.1-4.7-4.4
	c0-6.8-0.1-13.5,0-20.3c0-1.7-0.5-2.9-1.7-4.1c-3.1-3-6.1-6.1-9.2-9.1c-0.8-0.8-2.1-1.3-3.2-1.3c-3-0.2-5.9,0-8.9-0.1
	c-1.1,0-1.8,0.1-2.4,1.4c-0.5,1-2,2.1-3,2.1c-5.9,0.2-11.7,0.1-17.8,0.1c0-2.4,0-4.6,0-7.1c4.6,0,9.2,0,13.9,0c0-23.9,0-47.5,0-71.4
	c-4.7,0-9.3,0-14,0c0-2.4,0-4.6,0-7.1c1.4,0,2.9,0,4.3,0c4,0,8,0,12,0c3.2,0,3.8,0.5,5.1,3.6c2.2,0,4.6,0,7,0
	c20.4,0,40.7,0.2,61.1-0.1c11.4-0.2,17.1,11.3,11.8,19.2c-0.1,0.2-0.1,0.4-0.2,0.6C107.5,129.2,108.2,132.5,104.8,141z M92.7,157
	c1.9,0,3.6,0.1,5.3,0c3-0.1,5.2-2.3,5.3-5.2c0.1-3-2.3-5.4-5.6-5.4c-2.9-0.1-5.7,0-8.5,0c0-2.6,0-4.8,0-7.1c1.6,0,3.1,0,4.6,0
	c3.6-0.1,6-2.3,5.9-5.5c-0.1-3.1-2.5-5.2-6-5.2c-2.7,0-5.3,0-8.1,0c0-2.5,0-4.7,0-7.1c1.9,0,3.6,0.1,5.3,0c3-0.1,5.2-2.4,5.3-5.3
	c0-3.2-2.4-5.4-6-5.4c-22.2,0-44.4,0-66.7,0c-0.7,0-1.3,0.1-2,0.1c0,21.4,0,42.7,0,64.1c4.4,0,8.6,0.1,12.9,0c1.9,0,3.2,0.6,4.5,1.9
	c4.2,4.3,8.6,8.5,12.7,12.8c1,1.1,1.7,2.8,1.8,4.3c0.2,4.6,0.1,9.2,0.1,13.8c0,1.9,0,3.8,0,6c1.2-0.5,2-0.7,2.8-1.1
	c5.3-2.9,7.9-7.4,7.9-13.5c0-6.5,0-13.1,0-19.6c0-3.5,1.1-4.6,4.7-4.6c9.6,0,19.2,0,28.8,0c3.4,0,5.7-2.2,5.7-5.2
	c0.1-3.1-2.3-5.4-5.8-5.4c-1.6,0-3.2,0-4.8,0C92.7,161.6,92.7,159.5,92.7,157z"/>
<path d="M36.3,96.9c-1.8-0.3-4-0.7-6.5-1.2c3.5-18.2,11.9-33.5,25.5-45.8c16.6-15,36.3-21.9,58.9-21.3c-0.1,2.5-0.3,4.7-0.4,6.7
	C72.9,36.9,47.1,57.2,36.3,96.9z"/>
<path d="M184.2,124.3c2.3,0.4,4.4,0.8,7,1.2c-3.3,17-10.9,31.5-23.1,43.6c-18.1,17.9-42,24.6-61.3,23.4c0.1-2.2,0.2-4.5,0.3-6.9
	c18.7,0.5,35.4-4.7,50-16.3C171.6,157.7,180.5,142.7,184.2,124.3z"/>
</svg>
