<?xml version="1.0" encoding="utf-8"?>
<!-- Generator: Adobe Illustrator 21.0.2, SVG Export Plug-In . SVG Version: 6.00 Build 0)  -->
<svg version="1.1" id="Layer_1" xmlns="http://www.w3.org/2000/svg" xmlns:xlink="http://www.w3.org/1999/xlink" x="0px" y="0px"
	 viewBox="0 0 329.2 69.9" style="enable-background:new 0 0 329.2 69.9;" xml:space="preserve">
<style type="text/css">
	.st0{fill:none;stroke:#FF0606;stroke-width:2;stroke-miterlimit:10;}
</style>
<polygon class="st0" points="30.8,6.1 40.3,25.3 61.6,28.4 46.2,43.4 49.8,64.6 30.8,54.6 11.8,64.6 15.4,43.4 0,28.4 21.3,25.3 "/>
<polygon class="st0" points="97.7,6.1 107.2,25.3 128.5,28.4 113.1,43.4 116.7,64.6 97.7,54.6 78.7,64.6 82.3,43.4 66.9,28.4 
	88.2,25.3 "/>
<polygon class="st0" points="164.6,6.1 174.1,25.3 195.4,28.4 180,43.4 183.7,64.6 164.6,54.6 145.6,64.6 149.2,43.4 133.8,28.4 
	155.1,25.3 "/>
<polygon class="st0" points="231.5,6.1 241,25.3 262.3,28.4 246.9,43.4 250.6,64.6 231.5,54.6 212.5,64.6 216.1,43.4 200.7,28.4 
	222,25.3 "/>
<polygon class="st0" points="298.4,6.1 308,25.3 329.2,28.4 313.8,43.4 317.5,64.6 298.4,54.6 279.4,64.6 283,43.4 267.6,28.4 
	288.9,25.3 "/>
</svg>
