<?xml version="1.0" encoding="utf-8"?>
<!-- Generator: Adobe Illustrator 21.0.2, SVG Export Plug-In . SVG Version: 6.00 Build 0)  -->
<svg version="1.1" id="Layer_1" xmlns="http://www.w3.org/2000/svg" xmlns:xlink="http://www.w3.org/1999/xlink" x="0px" y="0px"
	 viewBox="0 0 329.2 58.6" style="enable-background:new 0 0 329.2 58.6;" xml:space="preserve">
<style type="text/css">
	.st0{fill:#FF0606;}
</style>
<polygon class="st0" points="30.8,0 40.3,19.3 61.6,22.4 46.2,37.4 49.8,58.6 30.8,48.6 11.8,58.6 15.4,37.4 0,22.4 21.3,19.3 "/>
<polygon class="st0" points="97.7,0 107.2,19.3 128.5,22.4 113.1,37.4 116.7,58.6 97.7,48.6 78.7,58.6 82.3,37.4 66.9,22.4 
	88.2,19.3 "/>
<polygon class="st0" points="164.6,0 174.1,19.3 195.4,22.4 180,37.4 183.7,58.6 164.6,48.6 145.6,58.6 149.2,37.4 133.8,22.4 
	155.1,19.3 "/>
<polygon class="st0" points="231.5,0 241,19.3 262.3,22.4 246.9,37.4 250.6,58.6 231.5,48.6 212.5,58.6 216.1,37.4 200.7,22.4 
	222,19.3 "/>
<polygon class="st0" points="298.4,0 308,19.3 329.2,22.4 313.8,37.4 317.5,58.6 298.4,48.6 279.4,58.6 283,37.4 267.6,22.4 
	288.9,19.3 "/>
</svg>
