<?xml version="1.0" encoding="utf-8"?>
<!-- Generator: Adobe Illustrator 21.0.2, SVG Export Plug-In . SVG Version: 6.00 Build 0)  -->
<svg version="1.1" id="Layer_1" xmlns="http://www.w3.org/2000/svg" xmlns:xlink="http://www.w3.org/1999/xlink" x="0px" y="0px"
	 viewBox="0 0 269.6 151.2" style="enable-background:new 0 0 269.6 151.2;" xml:space="preserve">
<style type="text/css">
	.st0{clip-path:url(#SVGID_2_);}
	.st1{clip-path:url(#SVGID_4_);fill:#FF0404;}
	.st2{clip-path:url(#SVGID_6_);}
	.st3{clip-path:url(#SVGID_8_);fill:#FF0404;}
	.st4{fill:#FF0000;}
</style>
<g>
	<defs>
		<path id="SVGID_1_" d="M762.2-263.8c5.3-2.6,9.2-6.5,11.9-11.7c0.1-0.2,0-0.6-0.1-0.8c-0.8-0.9-1.6-1.6-2.4-2.5
			c-1-1.1-1.1-2.7,0-3.8c1.8-1.9,3.6-3.7,5.5-5.5c1-1,2.5-1,3.6-0.1c1.1,0.9,2,1.9,2.6,3.2c1.4,2.9,1.3,5.9,0.5,8.9
			c-0.9,3.2-2.8,6-4.9,8.5c-3.5,4.3-7.5,8.1-12.3,10.9c-2.7,1.5-5.6,2.6-8.6,2.9c-3,0.3-5.4-0.9-7.5-3.1c-1.4-1.4-1.4-3,0-4.4
			c1.6-1.6,3.2-3.2,4.8-4.8c1.5-1.5,3.1-1.5,4.6,0C760.6-265.4,761.4-264.6,762.2-263.8z"/>
	</defs>
	<clipPath id="SVGID_2_">
		<use xlink:href="#SVGID_1_"  style="overflow:visible;"/>
	</clipPath>
	<g class="st0">
		<defs>
			<rect id="SVGID_3_" x="-593.6" y="-373.8" width="1440" height="830"/>
		</defs>
		<clipPath id="SVGID_4_">
			<use xlink:href="#SVGID_3_"  style="overflow:visible;"/>
		</clipPath>
		<rect x="744.4" y="-293.8" class="st1" width="45" height="45"/>
	</g>
</g>
<g>
	<defs>
		<path id="SVGID_5_" d="M762.2-263.8c5.3-2.6,9.2-6.5,11.9-11.7c0.1-0.2,0-0.6-0.1-0.8c-0.8-0.9-1.6-1.6-2.4-2.5
			c-1-1.1-1.1-2.7,0-3.8c1.8-1.9,3.6-3.7,5.5-5.5c1-1,2.5-1,3.6-0.1c1.1,0.9,2,1.9,2.6,3.2c1.4,2.9,1.3,5.9,0.5,8.9
			c-0.9,3.2-2.8,6-4.9,8.5c-3.5,4.3-7.5,8.1-12.3,10.9c-2.7,1.5-5.6,2.6-8.6,2.9c-3,0.3-5.4-0.9-7.5-3.1c-1.4-1.4-1.4-3,0-4.4
			c1.6-1.6,3.2-3.2,4.8-4.8c1.5-1.5,3.1-1.5,4.6,0C760.6-265.4,761.4-264.6,762.2-263.8z"/>
	</defs>
	<clipPath id="SVGID_6_">
		<use xlink:href="#SVGID_5_"  style="overflow:visible;"/>
	</clipPath>
	<g class="st2">
		<defs>
			<rect id="SVGID_7_" x="-593.6" y="-373.8" width="1440" height="830"/>
		</defs>
		<clipPath id="SVGID_8_">
			<use xlink:href="#SVGID_7_"  style="overflow:visible;"/>
		</clipPath>
		<rect x="744.4" y="-293.8" class="st3" width="45" height="45"/>
	</g>
</g>
<path class="st4" d="M144,7.6l120.3,120.3c4.2,4.2,4.2,11,0,15.2v0c-4.2,4.2-11,4.2-15.2,0L128.7,22.9c-4.2-4.2-4.2-11,0-15.2l0,0
	C133,3.4,139.8,3.4,144,7.6z"/>
<path class="st4" d="M143.1,22.9L22.9,143.1c-4.2,4.2-11,4.2-15.2,0l0,0c-4.2-4.2-4.2-11,0-15.2L127.9,7.6c4.2-4.2,11-4.2,15.2,0
	l0,0C147.3,11.8,147.3,18.6,143.1,22.9z"/>
</svg>
