<?xml version="1.0" encoding="utf-8"?>
<!-- Generator: Adobe Illustrator 21.0.2, SVG Export Plug-In . SVG Version: 6.00 Build 0)  -->
<svg version="1.1" id="Layer_1" xmlns="http://www.w3.org/2000/svg" xmlns:xlink="http://www.w3.org/1999/xlink" x="0px" y="0px"
	 viewBox="0 0 221.6 221.2" style="enable-background:new 0 0 221.6 221.2;" xml:space="preserve">
<path d="M28.7,218.5C19.3,208.8,10,199,0,188.5c9.1-8.9,17.9-17.5,26.6-26.1c14.8-14.7,29.3-29.6,44.3-44c3.9-3.8,4.5-6.7,2.1-11.8
	C50.5,57,86.3,1.1,140.3,1c30.2-0.1,57.8,17.7,69.1,45.7c12,29.8,6.7,57.2-15.1,80.7c-20.2,21.8-52.3,28.8-80.1,17.7
	c-6.2-2.5-9.5-1.4-13.8,3c-23.2,23.7-46.8,47-70.2,70.5C29.7,218.5,29.2,218.5,28.7,218.5z M140.2,121.4
	c25.6,0.2,46.3-20.1,46.4-45.7c0.1-25.3-20-45.7-45.4-45.9c-25.3-0.3-46,19.8-46.4,44.9C94.5,100.4,114.7,121.2,140.2,121.4z"/>
<path d="M112,84.4c0-6.4,0-11.2,0-17c6.4,0,12.7,0,19.8,0c0-7.2,0-13.5,0-20.4c6.1,0,11.3,0,17.5,0c0,6.6,0,12.9,0,20.1
	c7.1,0,13.4,0,20.1,0c0,5.9,0,11,0,16.9c-6.5,0-12.7,0-20,0c0,7.1,0,13.4,0,20.1c-6,0-11,0-17,0c0-6.2,0-12.5,0-19.7
	C125.3,84.4,119,84.4,112,84.4z"/>
</svg>
