<?xml version="1.0" encoding="utf-8"?>
<!-- Generator: Adobe Illustrator 21.0.2, SVG Export Plug-In . SVG Version: 6.00 Build 0)  -->
<svg version="1.1" id="Layer_1" xmlns="http://www.w3.org/2000/svg" xmlns:xlink="http://www.w3.org/1999/xlink" x="0px" y="0px"
	 viewBox="0 0 221.6 221.2" style="enable-background:new 0 0 221.6 221.2;" xml:space="preserve">
<path d="M0.4,189.3c17-16.8,34.1-33.5,51.1-50.3C58,132.7,64.1,126,70.8,120c4.2-3.7,4.1-6.6,1.9-11.6
	C53.1,64.3,77.9,13.9,124.5,2.3c32.4-8,66,5.5,83.8,33.6c17.8,28.1,15.5,64.6-5.6,90.1c-21.4,25.9-57,35.4-88,22.6
	c-6.4-2.6-9.8-1.6-14.3,3c-22.7,23.2-45.7,46-69.3,69.6c-10.5-10.3-20.7-20.3-30.9-30.3C0.4,190.4,0.4,189.8,0.4,189.3z M190.5,76.8
	c-0.1-26.1-21.1-47.1-47.2-47.2c-26.5-0.1-47.6,21.1-47.5,47.6c0.1,26.2,21,47,47.2,47.1C169.5,124.5,190.6,103.4,190.5,76.8z"/>
<path d="M113.7,68.4c19.8,0,38.8,0,58.6,0c0,5.4,0,10.8,0,16.8c-19.3,0-38.7,0-58.6,0C113.7,79.7,113.7,74.5,113.7,68.4z"/>
</svg>
